<svg xmlns="http://www.w3.org/2000/svg" xmlns:xlink="http://www.w3.org/1999/xlink" width="500" zoomAndPan="magnify" viewBox="0 0 375 374.999991" height="500" preserveAspectRatio="xMidYMid meet" version="1.0"><defs><g/></defs><path fill="#d2ae6d" d="M 172.550781 115.546875 C 169.085938 115.988281 164.980469 117.480469 162.859375 119.089844 C 161.25 120.304688 159.375 122.589844 158.394531 124.546875 C 157.824219 125.679688 157.320312 127.195312 157.101562 128.464844 C 156.902344 129.597656 156.855469 131.917969 157.03125 131.917969 C 157.101562 131.917969 158.941406 130.960938 161.132812 129.804688 L 165.121094 127.683594 L 166.300781 126.507812 C 167.570312 125.234375 168.410156 124.675781 169.890625 124.105469 C 172.597656 123.054688 175.429688 123.265625 177.574219 124.664062 C 179.125 125.679688 180.140625 127.136719 180.546875 128.945312 C 180.652344 129.386719 180.816406 130.074219 180.910156 130.460938 C 181.191406 131.601562 181.226562 133.957031 181.003906 137.515625 C 180.886719 139.308594 180.816406 140.8125 180.851562 140.835938 C 180.875 140.859375 181.226562 140.664062 181.621094 140.382812 C 182.355469 139.859375 183.253906 139.402344 185.632812 138.285156 C 186.390625 137.933594 187.441406 137.363281 187.964844 137.023438 L 188.933594 136.394531 L 188.921875 132.546875 C 188.910156 128.253906 188.839844 127.589844 188.09375 125.363281 C 187.589844 123.847656 186.820312 122.613281 185.832031 121.75 C 185.433594 121.410156 184.558594 120.617188 183.871094 119.988281 C 181.144531 117.457031 179.289062 116.351562 176.746094 115.757812 C 176 115.582031 173.34375 115.453125 172.550781 115.546875 Z M 172.550781 115.546875 " fill-opacity="1" fill-rule="nonzero"/><path fill="#d2ae6d" d="M 172.070312 126.097656 C 166.230469 126.691406 157.355469 133.257812 152.4375 140.605469 C 151.691406 141.722656 150.628906 143.730469 150.628906 144.019531 C 150.628906 144.125 151.386719 144.160156 153.707031 144.160156 L 156.785156 144.160156 L 157.460938 143.191406 C 157.824219 142.667969 158.558594 141.6875 159.070312 141.011719 C 162.03125 137.175781 165.671875 134.492188 170.230469 132.816406 C 172.738281 131.894531 175.546875 131.472656 178.296875 131.601562 C 179.113281 131.648438 179.777344 131.648438 179.777344 131.613281 C 179.777344 131.589844 179.617188 131.136719 179.417969 130.621094 C 178.984375 129.503906 178.089844 128.117188 177.410156 127.542969 C 176.128906 126.4375 174.101562 125.890625 172.070312 126.097656 Z M 172.070312 126.097656 " fill-opacity="1" fill-rule="nonzero"/><path fill="#d2ae6d" d="M 221.523438 127.71875 C 221.101562 127.777344 220.34375 127.90625 219.832031 128.011719 C 217.023438 128.570312 213.675781 130.261719 212.554688 131.671875 L 212.195312 132.117188 L 217.476562 133.945312 L 222.746094 135.765625 L 223.949219 135.765625 C 224.855469 135.765625 225.324219 135.824219 225.871094 136.007812 C 228.683594 136.953125 230.992188 139.996094 231.175781 142.996094 C 231.304688 145.046875 229.964844 147.273438 226.640625 150.527344 C 225.148438 151.972656 223.121094 153.675781 221.558594 154.769531 C 221.148438 155.050781 220.824219 155.320312 220.824219 155.355469 C 220.824219 155.390625 222.546875 156.089844 224.660156 156.90625 L 228.507812 158.386719 L 229.089844 157.8125 C 229.417969 157.5 230.640625 156.402344 231.808594 155.402344 C 235.339844 152.34375 237.125 150.421875 237.835938 148.882812 C 238.023438 148.496094 238.289062 147.679688 238.441406 147.074219 C 238.6875 146.109375 238.722656 145.699219 238.722656 143.753906 C 238.722656 142.039062 238.675781 141.316406 238.511719 140.570312 C 237.625 136.546875 235.539062 133.140625 232.542969 130.808594 C 230.441406 129.1875 228.578125 128.382812 225.777344 127.882812 C 224.554688 127.671875 222.480469 127.589844 221.523438 127.71875 Z M 221.523438 127.71875 " fill-opacity="1" fill-rule="nonzero"/><path fill="#d2ae6d" d="M 189.75 129.839844 C 189.785156 130.179688 189.886719 131.683594 189.992188 133.1875 C 190.25 137.164062 190.320312 137.292969 194.179688 141.246094 C 195.589844 142.691406 196.78125 143.867188 196.828125 143.867188 C 196.917969 143.867188 201.152344 139.859375 201.210938 139.707031 C 201.363281 139.34375 196.769531 134.738281 193.816406 132.277344 C 192.230469 130.960938 190.121094 129.363281 189.808594 129.257812 C 189.726562 129.222656 189.714844 129.445312 189.75 129.839844 Z M 189.75 129.839844 " fill-opacity="1" fill-rule="nonzero"/><path fill="#d2ae6d" d="M 200.710938 133.199219 C 199.355469 133.351562 198.0625 133.675781 198.179688 133.828125 C 198.574219 134.355469 202.261719 138.914062 202.480469 139.15625 L 202.761719 139.460938 L 204.707031 139.132812 C 207.039062 138.738281 207.761719 138.726562 210.292969 139.03125 C 213.652344 139.4375 215.5625 139.960938 217.90625 141.082031 C 220.882812 142.503906 222.457031 143.820312 225.054688 147.015625 C 225.882812 148.042969 226.605469 148.894531 226.664062 148.917969 C 226.816406 148.976562 228.144531 147.296875 228.519531 146.550781 C 229.289062 145.035156 229.253906 143.902344 228.367188 142.144531 C 227.992188 141.398438 227.667969 140.953125 226.839844 140.125 C 224.625 137.921875 221.488281 136.253906 215.925781 134.34375 C 214.035156 133.699219 213.699219 133.632812 211.609375 133.363281 C 209.921875 133.140625 202.238281 133.035156 200.710938 133.199219 Z M 200.710938 133.199219 " fill-opacity="1" fill-rule="nonzero"/><path fill="#d2ae6d" d="M 161.835938 140.628906 L 158.417969 144.101562 L 158.488281 146.503906 C 158.535156 147.820312 158.6875 150.761719 158.835938 153.035156 C 159 155.308594 159.164062 158.175781 159.210938 159.398438 L 159.292969 161.652344 L 159.886719 162.023438 C 160.214844 162.234375 161.34375 163.097656 162.40625 163.925781 C 166.160156 166.898438 167.804688 168.0625 167.96875 167.898438 C 168.152344 167.726562 167.359375 158.222656 166.195312 146.550781 C 165.902344 143.660156 165.589844 140.394531 165.496094 139.273438 C 165.402344 138.167969 165.308594 137.234375 165.285156 137.199219 C 165.25 137.175781 163.699219 138.714844 161.835938 140.628906 Z M 161.835938 140.628906 " fill-opacity="1" fill-rule="nonzero"/><path fill="#d2ae6d" d="M 189.164062 138.132812 C 187.835938 138.9375 183.230469 141.199219 180.769531 142.246094 C 175.6875 144.417969 171.3125 145.816406 168.714844 146.097656 L 167.980469 146.175781 L 168.050781 147.296875 C 168.082031 147.914062 168.140625 149.046875 168.175781 149.816406 C 168.210938 150.585938 168.269531 151.4375 168.304688 151.703125 L 168.363281 152.207031 L 168.957031 152.207031 C 173.644531 152.207031 184.429688 147.949219 192.5 142.914062 C 193.199219 142.480469 193.769531 142.097656 193.757812 142.0625 C 193.757812 142.027344 193.46875 141.792969 193.105469 141.535156 C 192.082031 140.800781 191.125 139.683594 190.578125 138.5625 L 190.097656 137.558594 Z M 189.164062 138.132812 " fill-opacity="1" fill-rule="nonzero"/><path fill="#d2ae6d" d="M 206.363281 139.972656 C 203.261719 140.089844 203.367188 140.066406 201.816406 141.222656 C 199.777344 142.738281 198.632812 143.742188 195.648438 146.644531 C 194.132812 148.113281 192.382812 149.769531 191.765625 150.328125 L 190.621094 151.332031 L 190.621094 162.035156 L 190.890625 161.8125 C 191.03125 161.683594 191.941406 160.902344 192.898438 160.078125 C 198.972656 154.839844 203.71875 150.539062 207.273438 147.015625 C 210.039062 144.289062 213.242188 140.929688 213.335938 140.671875 C 213.371094 140.570312 212.953125 140.382812 212.195312 140.183594 C 211.449219 139.996094 208.613281 139.890625 206.363281 139.972656 Z M 206.363281 139.972656 " fill-opacity="1" fill-rule="nonzero"/><path fill="#d2ae6d" d="M 151.792969 145.441406 C 149.347656 145.640625 145.03125 146.363281 143.503906 146.84375 C 142.628906 147.109375 141.929688 147.519531 142.070312 147.660156 C 142.128906 147.714844 143.304688 148.683594 144.683594 149.804688 L 147.1875 151.855469 L 148.703125 151.855469 C 149.542969 151.855469 151.328125 151.773438 152.667969 151.679688 C 154.023438 151.585938 155.664062 151.507812 156.332031 151.507812 L 157.542969 151.507812 L 157.460938 150.46875 C 157.320312 148.542969 156.667969 145.617188 156.367188 145.5 C 156.027344 145.371094 153.183594 145.335938 151.792969 145.441406 Z M 151.792969 145.441406 " fill-opacity="1" fill-rule="nonzero"/><path fill="#d2ae6d" d="M 184.910156 147.949219 L 180.769531 149.746094 L 180.699219 151.472656 C 180.558594 154.875 180.59375 160.355469 180.769531 161.660156 C 181.050781 163.785156 181.703125 166.09375 182.4375 167.539062 C 183.582031 169.8125 185.925781 171.992188 188.269531 172.972656 C 190.191406 173.765625 193.46875 174.195312 196.394531 174.023438 L 197.664062 173.953125 L 197.757812 173.496094 C 197.910156 172.773438 198.609375 171.421875 199.308594 170.488281 C 199.660156 170.023438 200.558594 169.019531 201.316406 168.273438 C 202.0625 167.515625 202.644531 166.875 202.609375 166.839844 C 202.527344 166.757812 200.136719 166.246094 199.136719 166.09375 C 198.65625 166.023438 196.847656 165.859375 195.136719 165.730469 C 191.578125 165.453125 191.007812 165.371094 190.355469 165.007812 C 189.175781 164.34375 189.164062 164.191406 189.164062 154.152344 C 189.175781 149.746094 189.140625 146.140625 189.105469 146.140625 C 189.070312 146.152344 187.183594 146.957031 184.910156 147.949219 Z M 184.910156 147.949219 " fill-opacity="1" fill-rule="nonzero"/><path fill="#d2ae6d" d="M 130.105469 146.375 C 126.351562 146.886719 122.832031 148.660156 120.429688 151.238281 C 118.433594 153.371094 116.894531 156.460938 116.59375 158.96875 C 116.265625 161.582031 116.710938 165.207031 117.699219 167.945312 C 118.539062 170.277344 119.925781 172.609375 121.105469 173.660156 C 121.652344 174.148438 123.308594 175.140625 123.414062 175.035156 C 123.425781 175.011719 123.636719 173.054688 123.878906 170.6875 C 124.195312 167.597656 124.3125 165.976562 124.289062 164.972656 C 124.183594 161.265625 124.207031 160.695312 124.488281 159.890625 C 125.1875 157.847656 126.714844 156.238281 128.953125 155.191406 C 130.117188 154.632812 131.015625 154.421875 132.160156 154.421875 C 134.09375 154.421875 136.113281 155.027344 138.070312 156.214844 C 139.609375 157.136719 140.636719 157.917969 142.628906 159.691406 C 144.378906 161.242188 144.785156 161.582031 144.84375 161.523438 C 144.855469 161.5 145.265625 159.550781 145.730469 157.207031 L 146.582031 152.929688 L 146.257812 152.507812 C 145.753906 151.855469 143.925781 150.28125 142.757812 149.5 C 140.695312 148.113281 138.28125 147.132812 135.703125 146.609375 C 134.316406 146.328125 131.355469 146.199219 130.105469 146.375 Z M 130.105469 146.375 " fill-opacity="1" fill-rule="nonzero"/><path fill="#d2ae6d" d="M 204.964844 150.945312 L 202.84375 153.3125 L 203.484375 153.90625 C 206.632812 156.835938 215.121094 161.394531 222.535156 164.144531 C 224.214844 164.765625 226.863281 165.566406 226.945312 165.476562 C 226.957031 165.464844 227.085938 164.203125 227.222656 162.699219 C 227.363281 161.195312 227.492188 159.832031 227.503906 159.679688 C 227.527344 159.410156 227.433594 159.363281 226.128906 158.96875 C 224.097656 158.351562 222.582031 157.722656 219.949219 156.414062 C 216.136719 154.527344 211.472656 151.726562 208.507812 149.570312 C 207.773438 149.035156 207.15625 148.589844 207.132812 148.589844 C 207.109375 148.589844 206.144531 149.652344 204.964844 150.945312 Z M 204.964844 150.945312 " fill-opacity="1" fill-rule="nonzero"/><path fill="#d2ae6d" d="M 149.265625 152.636719 L 147.726562 152.683594 L 147.65625 153.230469 C 147.128906 157.148438 146.09375 161.101562 143.527344 168.878906 C 142.152344 173.101562 141.382812 175.539062 141.441406 175.597656 C 141.476562 175.621094 142.546875 176.402344 144.625 177.894531 C 146 178.882812 146.957031 179.421875 147.175781 179.339844 C 147.257812 179.304688 147.410156 179 147.503906 178.652344 C 147.609375 178.3125 148.027344 176.925781 148.449219 175.585938 C 149.507812 172.15625 149.707031 171.492188 150.5 168.589844 C 151.597656 164.578125 152.855469 159.214844 153.367188 156.460938 C 153.53125 155.574219 153.894531 152.953125 153.894531 152.648438 C 153.894531 152.554688 152.808594 152.554688 149.265625 152.636719 Z M 149.265625 152.636719 " fill-opacity="1" fill-rule="nonzero"/><path fill="#d2ae6d" d="M 130.714844 155.632812 C 124.976562 161.59375 123.074219 171.96875 125.96875 181.53125 C 126.632812 183.710938 128.007812 187.210938 128.347656 187.570312 C 128.394531 187.617188 128.71875 187.28125 129.070312 186.8125 C 129.863281 185.730469 131.378906 183.910156 132.066406 183.199219 C 132.414062 182.835938 132.566406 182.59375 132.53125 182.441406 C 131.15625 177.542969 130.65625 173.859375 130.921875 170.628906 C 131.34375 165.453125 133.113281 161.335938 136.378906 157.917969 L 137.277344 156.976562 L 136.34375 156.695312 C 135.832031 156.542969 134.699219 156.207031 133.839844 155.949219 C 132.976562 155.691406 132.019531 155.402344 131.714844 155.320312 L 131.179688 155.144531 Z M 130.714844 155.632812 " fill-opacity="1" fill-rule="nonzero"/><path fill="#d2ae6d" d="M 232.050781 157.699219 L 229.476562 159.550781 L 229.394531 160.332031 C 229.277344 161.582031 229.019531 163.015625 228.695312 164.214844 C 228.085938 166.476562 227.621094 169.171875 227.820312 169.289062 C 227.933594 169.359375 233.542969 170.070312 233.589844 170.023438 C 233.695312 169.929688 234.128906 167.210938 234.289062 165.683594 C 234.453125 164.039062 234.757812 156.90625 234.675781 156.214844 L 234.640625 155.84375 Z M 232.050781 157.699219 " fill-opacity="1" fill-rule="nonzero"/><path fill="#d2ae6d" d="M 153.894531 158.582031 C 153.894531 158.699219 153.566406 160.648438 153.171875 162.921875 L 152.4375 167.039062 L 152.796875 167.351562 C 155.105469 169.3125 159.699219 173.148438 160.25 173.566406 C 161.972656 174.871094 164.316406 176.15625 166.078125 176.738281 C 166.589844 176.914062 167.558594 177.136719 168.234375 177.238281 C 170.964844 177.648438 174.066406 176.820312 176.46875 175.046875 C 177.855469 174.023438 181.179688 170.558594 181.179688 170.128906 C 181.191406 169.824219 179.734375 161.695312 179.664062 161.617188 C 179.617188 161.570312 178.984375 162.164062 178.25 162.945312 C 175.195312 166.222656 172.363281 168.414062 170.4375 169.007812 C 169.75 169.21875 169.578125 169.230469 168.921875 169.113281 C 166.976562 168.761719 164.902344 167.714844 162.171875 165.695312 C 160.46875 164.4375 159.1875 163.316406 156.539062 160.777344 C 155.199219 159.492188 154.058594 158.421875 154 158.410156 C 153.941406 158.386719 153.894531 158.46875 153.894531 158.582031 Z M 153.894531 158.582031 " fill-opacity="1" fill-rule="nonzero"/><path fill="#d2ae6d" d="M 212.765625 161.441406 C 212.425781 161.695312 210.957031 162.605469 209.511719 163.46875 C 205.839844 165.671875 204.101562 166.945312 202.027344 168.996094 C 199.742188 171.257812 198.960938 172.539062 198.492188 174.769531 C 198.238281 176.003906 198.238281 178.207031 198.492188 179.410156 C 199.101562 182.324219 200.917969 185.808594 202.820312 187.746094 C 203.660156 188.585938 203.683594 188.609375 204.125 188.527344 C 204.382812 188.492188 205.628906 188.515625 206.902344 188.585938 C 210.621094 188.796875 212.953125 188.898438 213 188.863281 C 213.023438 188.84375 212.3125 187.710938 211.414062 186.347656 C 208.371094 181.730469 206.957031 178.953125 206.761719 177.195312 C 206.691406 176.679688 206.726562 176.480469 206.992188 175.945312 C 207.414062 175.09375 208.007812 174.605469 210.796875 172.785156 C 216.273438 169.230469 218 167.957031 219.84375 166.140625 C 220.578125 165.417969 221.171875 164.773438 221.171875 164.71875 C 221.171875 164.671875 220.472656 164.296875 219.632812 163.902344 C 218.78125 163.503906 217.035156 162.6875 215.738281 162.082031 L 213.40625 160.984375 Z M 212.765625 161.441406 " fill-opacity="1" fill-rule="nonzero"/><path fill="#d2ae6d" d="M 236.179688 164.472656 C 236.132812 164.683594 235.910156 166.128906 235.679688 167.679688 L 235.257812 170.511719 L 235.621094 170.921875 C 236.355469 171.761719 239.246094 176.226562 240.914062 179.105469 C 241.925781 180.832031 242.394531 181.925781 242.835938 183.558594 C 243.117188 184.597656 243.140625 184.855469 243.140625 187.304688 C 243.152344 190.207031 243 191.546875 242.382812 193.925781 C 241.984375 195.464844 241.984375 195.464844 242.988281 195.464844 C 245.238281 195.464844 246.847656 194.484375 247.816406 192.503906 C 248.539062 191.035156 248.632812 190.449219 248.621094 187.769531 C 248.621094 185.683594 248.574219 185.179688 248.304688 183.792969 C 247.570312 180.015625 245.832031 175.269531 244.351562 173.007812 C 243.410156 171.5625 236.679688 164.097656 236.320312 164.097656 C 236.273438 164.097656 236.214844 164.273438 236.179688 164.472656 Z M 236.179688 164.472656 " fill-opacity="1" fill-rule="nonzero"/><path fill="#d2ae6d" d="M 213.652344 172.585938 L 208.765625 176.039062 L 209.453125 176.191406 C 212.625 176.855469 221.617188 178.03125 231.550781 179.082031 C 236.226562 179.570312 238.417969 179.828125 238.699219 179.910156 C 238.859375 179.957031 238.894531 179.898438 238.894531 179.570312 C 238.894531 179.011719 237.988281 177.238281 236.714844 175.292969 C 236.144531 174.429688 235.433594 173.3125 235.117188 172.820312 C 234.617188 172.003906 234.511719 171.910156 234.023438 171.75 C 232.726562 171.351562 231.65625 171.1875 226.59375 170.6875 C 221.148438 170.140625 219.738281 169.894531 218.933594 169.335938 C 218.769531 169.207031 218.605469 169.113281 218.585938 169.113281 C 218.574219 169.125 216.34375 170.675781 213.652344 172.585938 Z M 213.652344 172.585938 " fill-opacity="1" fill-rule="nonzero"/><path fill="#d2ae6d" d="M 132.089844 171.351562 C 132.101562 171.433594 132.53125 173.871094 133.058594 176.773438 L 134.023438 182.03125 L 135.890625 182.976562 C 138.605469 184.328125 140.683594 185.773438 146.234375 190.183594 L 147.597656 191.277344 L 152.539062 189.902344 C 155.257812 189.144531 157.507812 188.480469 157.53125 188.410156 C 157.683594 187.96875 141.277344 176.445312 135.820312 173.171875 C 134.527344 172.390625 132.3125 171.210938 132.148438 171.210938 C 132.113281 171.210938 132.089844 171.28125 132.089844 171.351562 Z M 132.089844 171.351562 " fill-opacity="1" fill-rule="nonzero"/><path fill="#d2ae6d" d="M 246.695312 173.753906 C 246.8125 174.058594 247.652344 176.308594 248.574219 178.765625 C 250.136719 182.964844 250.253906 183.246094 250.671875 183.570312 C 252.585938 185.085938 252.851562 188.339844 251.324219 191.441406 C 249.996094 194.113281 247.921875 195.804688 245.191406 196.421875 C 244.304688 196.621094 243.699219 196.675781 242.21875 196.675781 C 239.96875 196.675781 238.664062 196.457031 235.933594 195.582031 C 234.929688 195.265625 233.894531 194.964844 233.625 194.929688 L 233.148438 194.847656 L 233.21875 195.382812 C 233.265625 195.6875 233.707031 197.179688 234.21875 198.695312 C 234.734375 200.222656 235.234375 201.890625 235.339844 202.402344 C 235.445312 202.914062 235.550781 203.347656 235.574219 203.371094 C 235.679688 203.488281 237.21875 203.742188 238.722656 203.90625 C 244.832031 204.582031 249.367188 204.386719 252.058594 203.324219 C 256.105469 201.726562 259.011719 197.761719 259.835938 192.667969 C 260.09375 191.164062 260 188.050781 259.664062 186.476562 C 258.578125 181.4375 255.792969 177.4375 251.699219 175.046875 C 250.507812 174.347656 248.328125 173.554688 246.859375 173.277344 L 246.488281 173.207031 Z M 246.695312 173.753906 " fill-opacity="1" fill-rule="nonzero"/><path fill="#d2ae6d" d="M 160.539062 176.074219 C 160.539062 176.738281 160.808594 179.6875 161.019531 181.296875 C 161.308594 183.546875 161.285156 185.84375 160.949219 186.777344 C 160.273438 188.691406 158.640625 189.867188 155.351562 190.824219 C 153.054688 191.488281 148.714844 192.234375 144.332031 192.726562 C 141.800781 193.015625 141.941406 192.863281 143.027344 194.007812 C 143.980469 194.988281 144.914062 196.199219 146.605469 198.601562 L 147.539062 199.917969 L 149.113281 199.847656 C 153.789062 199.628906 158.101562 198.953125 160.5625 198.078125 C 165.132812 196.445312 167.640625 193.460938 168.527344 188.585938 C 168.761719 187.324219 168.898438 181.925781 168.738281 180.433594 L 168.644531 179.582031 L 164.796875 177.789062 C 162.683594 176.796875 160.867188 175.957031 160.75 175.921875 C 160.597656 175.875 160.539062 175.921875 160.539062 176.074219 Z M 160.539062 176.074219 " fill-opacity="1" fill-rule="nonzero"/><path fill="#d2ae6d" d="M 223.972656 180.214844 C 223.972656 180.492188 224.03125 181.742188 224.085938 182.988281 C 224.507812 191.265625 225.800781 198.765625 227.738281 204.210938 C 228.4375 206.15625 228.496094 206.308594 228.613281 206.308594 C 228.785156 206.308594 230.382812 205.222656 231.492188 204.351562 C 232.0625 203.894531 232.75 203.394531 233.03125 203.253906 C 233.3125 203.101562 233.53125 202.925781 233.53125 202.867188 C 233.53125 202.800781 233.324219 202.109375 233.054688 201.351562 C 231.1875 195.839844 229.8125 187.347656 229.800781 181.261719 L 229.800781 180.191406 L 229.488281 180.191406 C 229.300781 180.191406 228.085938 180.085938 226.769531 179.957031 C 223.667969 179.652344 223.972656 179.628906 223.972656 180.214844 Z M 223.972656 180.214844 " fill-opacity="1" fill-rule="nonzero"/><path fill="#d2ae6d" d="M 133.21875 184.003906 C 131.320312 185.589844 127.890625 190.21875 126.328125 193.34375 C 125.945312 194.101562 125.292969 195.816406 125.347656 195.871094 C 125.371094 195.894531 125.886719 195.757812 126.492188 195.582031 C 127.097656 195.40625 128.835938 194.90625 130.339844 194.472656 C 132.101562 193.960938 133.171875 193.597656 133.359375 193.4375 C 133.863281 192.980469 135.085938 191.453125 136.054688 190.042969 C 137.101562 188.515625 137.59375 187.886719 138.363281 187.046875 C 138.78125 186.589844 138.851562 186.464844 138.746094 186.277344 C 138.410156 185.648438 136.835938 184.644531 135.074219 183.921875 C 134.445312 183.664062 133.917969 183.453125 133.90625 183.453125 C 133.894531 183.453125 133.59375 183.699219 133.21875 184.003906 Z M 133.21875 184.003906 " fill-opacity="1" fill-rule="nonzero"/><path fill="#d2ae6d" d="M 207.53125 189.507812 C 202.527344 190.601562 199.042969 194.367188 196.605469 201.273438 L 196.101562 202.71875 L 196.769531 203.441406 C 201.1875 208.175781 202.0625 209.082031 202.097656 208.957031 C 202.121094 208.886719 202.261719 208.335938 202.398438 207.765625 C 202.738281 206.414062 203.320312 204.746094 204.054688 202.996094 C 205.199219 200.257812 206.144531 198.601562 207.027344 197.796875 L 207.566406 197.296875 L 208.742188 197.378906 C 210.691406 197.503906 212.859375 197.914062 217.371094 199.03125 C 220.308594 199.753906 223.5625 200.433594 224.707031 200.535156 C 225.625 200.628906 225.601562 200.710938 225.253906 199.042969 C 224.484375 195.277344 223.410156 192.128906 222.875 192.035156 C 222.734375 192 222.316406 191.933594 221.929688 191.851562 C 221.546875 191.78125 220.308594 191.441406 219.191406 191.09375 C 214.722656 189.726562 213.183594 189.414062 210.386719 189.332031 C 208.847656 189.296875 208.347656 189.320312 207.53125 189.507812 Z M 207.53125 189.507812 " fill-opacity="1" fill-rule="nonzero"/><path fill="#d2ae6d" d="M 136.078125 192.023438 C 135.238281 193.203125 134.515625 194.242188 134.480469 194.320312 C 134.421875 194.472656 135.085938 195.324219 138.957031 200.011719 C 142.628906 204.464844 146.210938 209.621094 147.726562 212.640625 C 148.050781 213.269531 148.34375 213.769531 148.390625 213.746094 C 149.101562 213.375 149.765625 213.152344 150.976562 212.898438 C 152.714844 212.535156 153.136719 212.417969 153.625 212.117188 L 154.011719 211.894531 L 153.578125 211.054688 C 151.726562 207.359375 147.820312 202.019531 141.511719 194.566406 C 140.273438 193.109375 138.898438 191.453125 138.46875 190.882812 C 138.023438 190.324219 137.664062 189.867188 137.652344 189.878906 C 137.640625 189.878906 136.929688 190.847656 136.078125 192.023438 Z M 136.078125 192.023438 " fill-opacity="1" fill-rule="nonzero"/><path fill="#d2ae6d" d="M 167.535156 195.429688 C 167.371094 195.523438 165.671875 196.410156 163.757812 197.390625 L 160.273438 199.171875 L 161.484375 200.070312 C 162.777344 201.027344 164.644531 202.167969 166.042969 202.878906 C 167.839844 203.777344 169.714844 205.363281 170.277344 206.425781 C 170.929688 207.648438 170.371094 209.128906 166.636719 215.988281 C 165.0625 218.878906 162.636719 223.578125 162.636719 223.71875 C 162.636719 223.742188 163.863281 223.800781 165.355469 223.84375 C 168.074219 223.925781 171.6875 223.777344 172.082031 223.566406 C 172.199219 223.507812 172.621094 222.949219 173.039062 222.316406 C 175.851562 218.074219 177.46875 214.308594 178.089844 210.632812 C 178.238281 209.703125 178.273438 209.015625 178.226562 207.660156 C 178.148438 205.050781 177.726562 203.71875 176.410156 201.785156 C 174.683594 199.265625 172.863281 197.773438 169.460938 196.082031 C 167.921875 195.324219 167.804688 195.277344 167.535156 195.429688 Z M 167.535156 195.429688 " fill-opacity="1" fill-rule="nonzero"/><path fill="#d2ae6d" d="M 130.164062 196.386719 C 126.527344 197.457031 125.675781 197.75 123.9375 198.566406 C 121.304688 199.8125 119.296875 201.480469 118.179688 203.359375 C 116.640625 205.949219 115.71875 210.273438 116.007812 213.597656 C 116.429688 218.457031 118.433594 222.46875 121.6875 224.90625 C 125.335938 227.648438 129.828125 228.429688 135.332031 227.285156 C 135.984375 227.144531 136.519531 227.003906 136.507812 226.957031 C 136.507812 226.925781 136.054688 226.667969 135.492188 226.398438 C 132.253906 224.835938 128.460938 221.351562 126.105469 217.792969 C 124.195312 214.890625 123.261719 212.046875 123.566406 210.027344 C 123.9375 207.578125 125.558594 205.914062 128.417969 205.027344 C 130.023438 204.523438 135.644531 203.136719 137.976562 202.660156 C 138.304688 202.601562 138.570312 202.53125 138.59375 202.507812 C 138.628906 202.484375 133.265625 195.453125 133.21875 195.476562 C 133.207031 195.488281 131.832031 195.894531 130.164062 196.386719 Z M 130.164062 196.386719 " fill-opacity="1" fill-rule="nonzero"/><path fill="#d2ae6d" d="M 209.980469 198.894531 C 209.980469 199.148438 211.925781 202.984375 213.417969 205.667969 C 215.796875 209.945312 218.398438 214.460938 220.9375 218.726562 C 222.234375 220.90625 223.644531 223.308594 224.0625 224.054688 C 224.472656 224.8125 224.855469 225.429688 224.902344 225.429688 C 225.136719 225.429688 225.648438 223.84375 226.886719 219.191406 C 227.28125 217.710938 227.714844 216.265625 227.832031 215.976562 L 228.0625 215.449219 L 227.644531 214.460938 C 226.992188 212.945312 226.046875 211.21875 223.796875 207.476562 C 222.664062 205.585938 221.417969 203.40625 221.042969 202.625 L 220.34375 201.214844 L 216.007812 200.1875 C 213.617188 199.617188 211.285156 199.066406 210.832031 198.964844 C 210.210938 198.8125 209.980469 198.800781 209.980469 198.894531 Z M 209.980469 198.894531 " fill-opacity="1" fill-rule="nonzero"/><path fill="#d2ae6d" d="M 189.09375 203.054688 C 186.203125 203.195312 183.125 203.835938 181.351562 204.664062 C 180.628906 205.003906 180.375 205.179688 180.328125 205.386719 C 180.164062 206.097656 179.054688 213.550781 179.113281 213.609375 C 179.148438 213.644531 179.429688 213.539062 179.753906 213.375 C 181.925781 212.277344 186.355469 211.277344 189.105469 211.277344 C 190.203125 211.265625 190.402344 211.300781 191.03125 211.589844 C 192.441406 212.242188 193.734375 213.527344 195.230469 215.753906 C 196.089844 217.035156 197.457031 219.859375 198.121094 221.699219 C 198.65625 223.191406 199.484375 226.28125 199.484375 226.785156 C 199.484375 226.9375 199.53125 227.0625 199.578125 227.0625 C 199.800781 227.0625 200.722656 226.144531 201.839844 224.8125 C 203.554688 222.75 204.476562 221.746094 204.90625 221.457031 L 205.28125 221.199219 L 205.140625 220.3125 C 204.277344 214.996094 200.824219 208.546875 197.152344 205.398438 C 194.808594 203.394531 193.011719 202.878906 189.09375 203.054688 Z M 189.09375 203.054688 " fill-opacity="1" fill-rule="nonzero"/><path fill="#d2ae6d" d="M 234.105469 204.78125 C 231.761719 206.4375 227.925781 208.234375 226.570312 208.300781 C 226.292969 208.324219 226.070312 208.371094 226.070312 208.417969 C 226.070312 208.535156 228.972656 213.433594 229.148438 213.621094 C 229.429688 213.921875 231.863281 213 234.046875 211.765625 C 237.054688 210.050781 240.273438 207.519531 241.167969 206.15625 C 241.285156 205.980469 241.355469 205.820312 241.332031 205.785156 C 241.308594 205.761719 240.320312 205.609375 239.128906 205.445312 C 236.808594 205.121094 235.828125 204.898438 235.164062 204.558594 L 234.734375 204.339844 Z M 234.105469 204.78125 " fill-opacity="1" fill-rule="nonzero"/><path fill="#d2ae6d" d="M 128.089844 207.242188 C 126.316406 208.957031 125.839844 209.691406 125.710938 210.878906 C 125.628906 211.636719 125.898438 212.933594 126.339844 214.027344 C 127.890625 217.863281 133.183594 223.167969 138.910156 226.65625 C 142.316406 228.730469 145.917969 230.199219 148.390625 230.539062 C 149.089844 230.632812 149.113281 230.632812 149.113281 230.375 C 149.113281 229.980469 148.679688 228.671875 148.15625 227.484375 C 147.503906 225.992188 147.0625 224.753906 146.96875 224.195312 L 146.886719 223.71875 L 145.753906 223.332031 C 140.554688 221.59375 136.296875 218.296875 133.230469 213.644531 C 131.902344 211.625 130.992188 209.714844 130.175781 207.207031 L 129.6875 205.703125 Z M 128.089844 207.242188 " fill-opacity="1" fill-rule="nonzero"/><path fill="#d2ae6d" d="M 167 208.933594 C 166.40625 209.082031 165.144531 209.445312 164.199219 209.75 C 163.246094 210.050781 162.277344 210.355469 162.054688 210.414062 C 161.378906 210.613281 156.433594 212.441406 154.125 213.363281 C 149.382812 215.242188 142.792969 217.410156 139.972656 218.027344 L 139.050781 218.238281 L 139.503906 218.46875 C 139.75 218.597656 141.90625 219.707031 144.285156 220.941406 L 148.613281 223.191406 L 149.707031 222.984375 C 153.472656 222.25 160.226562 220.171875 162.417969 219.078125 C 163.523438 218.515625 163.792969 218.226562 165.425781 215.765625 C 167.921875 212.011719 168.714844 210.507812 168.855469 209.246094 L 168.921875 208.640625 L 168.492188 208.640625 C 168.257812 208.652344 167.582031 208.78125 167 208.933594 Z M 167 208.933594 " fill-opacity="1" fill-rule="nonzero"/><path fill="#d2ae6d" d="M 232.4375 213.597656 C 230.839844 214.191406 229.496094 214.726562 229.453125 214.785156 C 229.40625 214.832031 229.289062 215.507812 229.171875 216.277344 C 228.855469 218.515625 228.308594 221.070312 227.867188 222.398438 C 227.363281 223.914062 226.292969 226.15625 225.546875 227.238281 C 223.144531 230.761719 219.574219 233.476562 215.144531 235.179688 C 214.679688 235.355469 214.292969 235.5625 214.292969 235.621094 C 214.292969 235.984375 214.910156 236.988281 215.4375 237.464844 C 216.160156 238.140625 217.628906 239.109375 218.933594 239.773438 L 219.902344 240.261719 L 220.753906 239.960938 C 227.773438 237.394531 234.851562 225.816406 235.574219 215.71875 C 235.65625 214.550781 235.550781 212.488281 235.410156 212.488281 C 235.375 212.5 234.035156 212.988281 232.4375 213.597656 Z M 232.4375 213.597656 " fill-opacity="1" fill-rule="nonzero"/><path fill="#d2ae6d" d="M 215.085938 213.527344 C 212.425781 215.320312 208.007812 219.625 204.546875 223.800781 C 201.710938 227.214844 197.980469 232.894531 198.457031 233.070312 C 198.539062 233.09375 199.707031 233.511719 201.035156 233.976562 L 203.460938 234.839844 L 203.996094 233.804688 C 205.058594 231.726562 206.9375 229.140625 209.546875 226.132812 C 210.1875 225.398438 212.460938 223.054688 214.597656 220.941406 L 218.480469 217.09375 L 217.289062 215.03125 C 216.636719 213.886719 216.066406 212.957031 216.019531 212.957031 C 215.984375 212.957031 215.5625 213.210938 215.085938 213.527344 Z M 215.085938 213.527344 " fill-opacity="1" fill-rule="nonzero"/><path fill="#d2ae6d" d="M 191.964844 213.597656 C 191.148438 215.8125 190.679688 216.90625 186.308594 226.949219 C 182.367188 235.996094 179.953125 241.730469 180.058594 241.835938 C 180.070312 241.847656 181.097656 241.476562 182.34375 241.007812 C 183.59375 240.542969 185.738281 239.75 187.113281 239.238281 C 189.070312 238.515625 189.621094 238.257812 189.691406 238.058594 C 190.015625 237.230469 191.042969 235.109375 192.035156 233.242188 C 194.097656 229.359375 195.578125 225.992188 196.136719 223.9375 L 196.441406 222.855469 L 194.507812 218.691406 C 193.445312 216.40625 192.453125 214.261719 192.3125 213.945312 C 192.082031 213.457031 192.035156 213.398438 191.964844 213.597656 Z M 191.964844 213.597656 " fill-opacity="1" fill-rule="nonzero"/><path fill="#d2ae6d" d="M 152.402344 223.84375 L 149.566406 224.90625 L 149.648438 225.488281 C 150.09375 228.800781 152.25 234.222656 154.136719 236.789062 L 154.734375 237.59375 L 155.140625 236.964844 C 155.363281 236.613281 156.039062 235.332031 156.65625 234.117188 C 157.261719 232.894531 157.847656 231.820312 157.929688 231.714844 C 158.066406 231.554688 158.066406 231.472656 157.90625 231.074219 C 157.214844 229.441406 155.863281 225.070312 155.527344 223.414062 C 155.457031 223.054688 155.363281 222.75 155.316406 222.761719 C 155.269531 222.773438 153.964844 223.25 152.402344 223.84375 Z M 152.402344 223.84375 " fill-opacity="1" fill-rule="nonzero"/><path fill="#d2ae6d" d="M 164.039062 225.316406 C 163.105469 225.363281 161.191406 225.441406 159.769531 225.488281 L 157.195312 225.582031 L 158.21875 228.277344 L 159.246094 230.96875 L 161.203125 230.957031 C 162.277344 230.957031 164.027344 230.886719 165.085938 230.820312 C 166.148438 230.738281 168.398438 230.679688 170.101562 230.679688 C 175.617188 230.679688 178.378906 231.003906 182.320312 232.148438 C 182.496094 232.195312 182.578125 232.171875 182.578125 232.054688 C 182.578125 231.578125 183.007812 230.5625 183.582031 229.734375 C 184.40625 228.507812 184.78125 227.761719 184.875 227.121094 C 184.910156 226.832031 184.921875 226.597656 184.898438 226.597656 C 184.875 226.597656 184.070312 226.445312 183.101562 226.257812 C 180.746094 225.792969 177.949219 225.453125 175.347656 225.316406 C 173.015625 225.1875 166.765625 225.1875 164.039062 225.316406 Z M 164.039062 225.316406 " fill-opacity="1" fill-rule="nonzero"/><path fill="#d2ae6d" d="M 232.949219 229.417969 C 230.035156 234.992188 228.972656 236.660156 227.292969 238.316406 C 225.894531 239.691406 223.597656 241.03125 221.871094 241.476562 C 219.902344 241.976562 218.105469 241.207031 215.703125 238.828125 C 213.289062 236.425781 210.851562 232.507812 209.863281 229.417969 L 209.664062 228.789062 L 207.132812 232.253906 L 204.59375 235.714844 L 204.730469 236.4375 C 204.941406 237.5 205.617188 239.457031 206.15625 240.519531 C 208.359375 244.890625 212.289062 247.65625 218.023438 248.878906 C 219.679688 249.242188 223.25 249.265625 224.84375 248.949219 C 227.164062 248.472656 229.125 247.679688 230.78125 246.535156 C 231.796875 245.835938 233.484375 244.167969 234.046875 243.339844 C 234.558594 242.558594 235.457031 240.472656 235.746094 239.332031 C 236.585938 236.148438 236.65625 231.984375 235.921875 229.105469 C 235.597656 227.855469 234.941406 226.015625 234.816406 226.015625 C 234.769531 226.015625 233.929688 227.554688 232.949219 229.417969 Z M 232.949219 229.417969 " fill-opacity="1" fill-rule="nonzero"/><path fill="#d2ae6d" d="M 158.089844 232.71875 C 154.617188 237.847656 154.359375 246.070312 157.507812 251.839844 C 159.117188 254.78125 161.949219 257.4375 164.550781 258.441406 C 166.671875 259.257812 169.0625 259.597656 171.175781 259.363281 C 174.367188 259.011719 178.894531 257.753906 180.6875 256.714844 C 182.960938 255.410156 184.304688 253.648438 184.417969 251.828125 C 184.464844 251.039062 184.351562 250.199219 184.105469 249.53125 L 183.976562 249.21875 L 183.347656 249.625 C 181.574219 250.757812 179.183594 251.726562 177.179688 252.144531 C 175.699219 252.449219 173.121094 252.460938 171.558594 252.191406 C 166.871094 251.363281 163.652344 248.542969 162.824219 244.519531 C 162.582031 243.363281 162.582031 241.289062 162.824219 240.226562 C 163.28125 238.222656 164.46875 235.972656 166.242188 233.769531 L 167.269531 232.484375 L 166.207031 232.449219 C 165.625 232.4375 163.628906 232.382812 161.777344 232.335938 L 158.40625 232.253906 Z M 158.089844 232.71875 " fill-opacity="1" fill-rule="nonzero"/><path fill="#d2ae6d" d="M 192.976562 235.191406 L 191.941406 237.847656 L 192.476562 237.976562 C 193.035156 238.09375 193.210938 238.1875 195.8125 239.65625 C 199.125 241.523438 201.269531 242.222656 203.695312 242.222656 C 204.929688 242.222656 204.964844 242.210938 204.964844 241.953125 C 204.964844 241.429688 204.648438 240.390625 204.289062 239.714844 C 203.4375 238.117188 203.179688 237.5 203.121094 236.789062 L 203.074219 236.078125 L 202.363281 235.949219 C 201.886719 235.855469 200.722656 235.355469 198.679688 234.363281 C 196.148438 233.128906 194.679688 232.542969 194.144531 232.542969 C 194.074219 232.542969 193.550781 233.734375 192.976562 235.191406 Z M 192.976562 235.191406 " fill-opacity="1" fill-rule="nonzero"/><path fill="#d2ae6d" d="M 190.496094 239.261719 C 189.898438 239.867188 188.617188 240.777344 187.707031 241.230469 C 186.203125 241.988281 183.988281 242.605469 181.351562 243.003906 C 179.40625 243.292969 174.378906 243.292969 172.375 243.003906 C 169.785156 242.617188 166.800781 241.789062 165.589844 241.113281 C 165.308594 240.960938 165.085938 240.871094 165.085938 240.917969 C 165.085938 240.960938 165.460938 242.292969 165.925781 243.878906 L 166.777344 246.757812 L 167.710938 247.109375 C 169.542969 247.796875 171.441406 248.273438 173.425781 248.53125 C 174.800781 248.707031 178.707031 248.707031 180.1875 248.53125 C 184.769531 247.96875 189.234375 246.5 193.328125 244.203125 C 195.125 243.191406 197.292969 241.730469 197.175781 241.617188 C 197.105469 241.546875 196.3125 241.242188 195.390625 240.929688 C 193.445312 240.25 192.253906 239.703125 191.519531 239.144531 L 190.996094 238.746094 Z M 190.496094 239.261719 " fill-opacity="1" fill-rule="nonzero"/><g fill="#d2ae6d" fill-opacity="1"><g transform="translate(87.310288, 232.19751)"><g><path d="M 25.28125 3.171875 C 25.476562 2.453125 25.535156 1.773438 25.453125 1.140625 C 25.378906 0.503906 25.1875 -0.09375 24.875 -0.65625 L 27.5625 -2.421875 C 28.800781 -0.335938 29.203125 1.835938 28.765625 4.109375 Z M 9.78125 9.28125 C 10.1875 9.78125 10.664062 10.191406 11.21875 10.515625 C 11.769531 10.847656 12.398438 11.070312 13.109375 11.1875 L 12.609375 14.734375 C 11.484375 14.484375 10.460938 14.050781 9.546875 13.4375 C 8.628906 12.820312 7.8125 12.023438 7.09375 11.046875 Z M 11.53125 -4.5 C 13.15625 -5.5625 14.707031 -6.304688 16.1875 -6.734375 C 17.675781 -7.160156 19.070312 -7.304688 20.375 -7.171875 C 21.6875 -7.046875 22.882812 -6.671875 23.96875 -6.046875 C 25.050781 -5.421875 26 -4.585938 26.8125 -3.546875 L 24.09375 -1.75 C 23.613281 -2.289062 23.039062 -2.71875 22.375 -3.03125 C 21.71875 -3.34375 20.957031 -3.503906 20.09375 -3.515625 C 19.238281 -3.523438 18.273438 -3.335938 17.203125 -2.953125 C 16.140625 -2.578125 14.972656 -1.988281 13.703125 -1.1875 C 12.441406 -0.332031 11.4375 0.503906 10.6875 1.328125 C 9.9375 2.148438 9.382812 2.960938 9.03125 3.765625 C 8.675781 4.578125 8.507812 5.359375 8.53125 6.109375 C 8.550781 6.859375 8.71875 7.539062 9.03125 8.15625 L 6.359375 9.90625 C 5.710938 8.757812 5.316406 7.566406 5.171875 6.328125 C 5.023438 5.085938 5.148438 3.835938 5.546875 2.578125 C 5.953125 1.328125 6.648438 0.101562 7.640625 -1.09375 C 8.628906 -2.300781 9.925781 -3.4375 11.53125 -4.5 Z M 11.53125 -4.5 "/></g></g></g><g fill="#d2ae6d" fill-opacity="1"><g transform="translate(102.423487, 254.135774)"><g><path d="M 27.53125 0.640625 C 24.46875 2.140625 21.753906 3.46875 19.390625 4.625 C 17.023438 5.789062 14.953125 6.8125 13.171875 7.6875 C 11.398438 8.570312 9.882812 9.296875 8.625 9.859375 C 7.363281 10.429688 6.273438 10.878906 5.359375 11.203125 C 4.441406 11.523438 3.675781 11.726562 3.0625 11.8125 C 2.445312 11.90625 1.898438 11.90625 1.421875 11.8125 C 0.941406 11.726562 0.503906 11.535156 0.109375 11.234375 C -0.285156 10.941406 -0.707031 10.582031 -1.15625 10.15625 C -1.300781 10.019531 -1.453125 9.84375 -1.609375 9.625 C -1.765625 9.414062 -1.90625 9.195312 -2.03125 8.96875 C -2.164062 8.738281 -2.28125 8.53125 -2.375 8.34375 C -2.46875 8.15625 -2.523438 8.023438 -2.546875 7.953125 C -2.210938 7.734375 -1.898438 7.523438 -1.609375 7.328125 C -1.347656 7.140625 -1.09375 6.972656 -0.84375 6.828125 C -0.601562 6.691406 -0.4375 6.597656 -0.34375 6.546875 C -0.21875 6.671875 -0.0625 6.894531 0.125 7.21875 C 0.3125 7.539062 0.46875 7.765625 0.59375 7.890625 C 0.84375 8.128906 1.078125 8.328125 1.296875 8.484375 C 1.515625 8.640625 1.757812 8.734375 2.03125 8.765625 C 2.3125 8.796875 2.628906 8.765625 2.984375 8.671875 C 3.347656 8.578125 3.8125 8.398438 4.375 8.140625 L 7.296875 6.84375 L 24.640625 -2.078125 Z M 7.96875 5.125 L 14.359375 -11.703125 L 17.25 -9 L 12.234375 3.1875 L 11.125 3.6875 Z M 7.96875 5.125 "/></g></g></g><g fill="#d2ae6d" fill-opacity="1"><g transform="translate(122.238038, 271.883735)"><g><path d="M 15.046875 -20.53125 L 18.46875 -18.5625 L 6.9375 1.46875 C 6.757812 1.726562 6.550781 2.015625 6.3125 2.328125 C 6.082031 2.648438 5.867188 2.960938 5.671875 3.265625 L 2.421875 1.390625 Z M 22.734375 -1.6875 C 22.460938 -0.6875 22.03125 0.328125 21.4375 1.359375 C 20.8125 2.429688 20.078125 3.398438 19.234375 4.265625 C 18.390625 5.128906 17.488281 5.800781 16.53125 6.28125 C 15.570312 6.769531 14.566406 7.019531 13.515625 7.03125 C 12.472656 7.050781 11.421875 6.757812 10.359375 6.15625 C 9.703125 5.769531 9.113281 5.328125 8.59375 4.828125 C 8.082031 4.335938 7.6875 3.835938 7.40625 3.328125 L 9.09375 0.390625 C 9.1875 0.867188 9.367188 1.320312 9.640625 1.75 C 9.910156 2.175781 10.285156 2.523438 10.765625 2.796875 C 11.316406 3.117188 11.90625 3.269531 12.53125 3.25 C 13.15625 3.238281 13.769531 3.085938 14.375 2.796875 C 14.976562 2.503906 15.566406 2.085938 16.140625 1.546875 C 16.710938 1.003906 17.21875 0.351562 17.65625 -0.40625 C 18.082031 -1.132812 18.394531 -1.878906 18.59375 -2.640625 C 18.789062 -3.410156 18.878906 -4.132812 18.859375 -4.8125 C 18.835938 -5.5 18.691406 -6.117188 18.421875 -6.671875 C 18.148438 -7.234375 17.726562 -7.679688 17.15625 -8.015625 C 16.664062 -8.296875 16.160156 -8.453125 15.640625 -8.484375 C 15.117188 -8.523438 14.59375 -8.445312 14.0625 -8.25 L 15.8125 -11.265625 C 16.382812 -11.265625 16.96875 -11.175781 17.5625 -11 C 18.164062 -10.832031 18.753906 -10.585938 19.328125 -10.265625 C 19.953125 -9.898438 20.53125 -9.445312 21.0625 -8.90625 C 21.601562 -8.375 22.035156 -7.753906 22.359375 -7.046875 C 22.679688 -6.335938 22.890625 -5.523438 22.984375 -4.609375 C 23.085938 -3.691406 23.003906 -2.71875 22.734375 -1.6875 Z M 22.734375 -1.6875 "/></g></g></g><g fill="#d2ae6d" fill-opacity="1"><g transform="translate(144.655087, 284.208736)"><g><path d="M 16.1875 -14.484375 C 17.28125 -14.023438 18.203125 -13.410156 18.953125 -12.640625 C 19.710938 -11.867188 20.296875 -10.992188 20.703125 -10.015625 C 21.109375 -9.035156 21.328125 -7.984375 21.359375 -6.859375 C 21.398438 -5.742188 21.253906 -4.628906 20.921875 -3.515625 C 20.765625 -3.023438 20.582031 -2.539062 20.375 -2.0625 L 9.6875 -5.28125 L 10.515625 -8.03125 L 17.703125 -5.859375 C 17.867188 -6.398438 17.9375 -6.941406 17.90625 -7.484375 C 17.882812 -8.035156 17.765625 -8.578125 17.546875 -9.109375 C 17.335938 -9.640625 17.046875 -10.117188 16.671875 -10.546875 C 16.304688 -10.984375 15.851562 -11.316406 15.3125 -11.546875 Z M 11.609375 0.296875 C 11.847656 0.367188 12.144531 0.429688 12.5 0.484375 C 12.851562 0.535156 13.238281 0.550781 13.65625 0.53125 C 14.082031 0.519531 14.519531 0.46875 14.96875 0.375 C 15.414062 0.28125 15.832031 0.128906 16.21875 -0.078125 L 16.96875 2.421875 C 16.019531 3.066406 15.023438 3.46875 13.984375 3.625 C 12.941406 3.789062 11.710938 3.660156 10.296875 3.234375 C 9.148438 2.890625 8.144531 2.332031 7.28125 1.5625 C 6.425781 0.800781 5.765625 -0.0859375 5.296875 -1.109375 C 4.835938 -2.140625 4.5625 -3.257812 4.46875 -4.46875 C 4.382812 -5.675781 4.53125 -6.90625 4.90625 -8.15625 C 5.269531 -9.34375 5.800781 -10.40625 6.5 -11.34375 C 7.195312 -12.289062 8 -13.0625 8.90625 -13.65625 C 9.820312 -14.257812 10.796875 -14.675781 11.828125 -14.90625 C 12.859375 -15.144531 13.894531 -15.132812 14.9375 -14.875 L 14.03125 -11.890625 C 13.21875 -11.984375 12.488281 -11.863281 11.84375 -11.53125 C 11.195312 -11.195312 10.640625 -10.765625 10.171875 -10.234375 C 9.710938 -9.710938 9.328125 -9.144531 9.015625 -8.53125 C 8.703125 -7.914062 8.476562 -7.378906 8.34375 -6.921875 C 8.101562 -6.117188 7.972656 -5.335938 7.953125 -4.578125 C 7.941406 -3.828125 8.066406 -3.132812 8.328125 -2.5 C 8.585938 -1.863281 8.976562 -1.304688 9.5 -0.828125 C 10.03125 -0.347656 10.734375 0.0234375 11.609375 0.296875 Z M 11.609375 0.296875 "/></g></g></g><g fill="#d2ae6d" fill-opacity="1"><g transform="translate(169.630504, 290.929053)"><g><path d="M 8.015625 -17.6875 L 8.265625 -15.75 L 7.328125 -5.84375 L 7.3125 -5.78125 L 6.703125 0.640625 L 2.78125 0.265625 L 4.515625 -18.015625 Z M 9.703125 -16.703125 C 10.265625 -16.953125 10.929688 -17.125 11.703125 -17.21875 C 12.484375 -17.3125 13.519531 -17.296875 14.8125 -17.171875 L 14.421875 -13.078125 C 13.828125 -13.316406 13.101562 -13.488281 12.25 -13.59375 C 11.769531 -13.632812 11.285156 -13.640625 10.796875 -13.609375 C 10.304688 -13.578125 9.835938 -13.507812 9.390625 -13.40625 Z M 9.703125 -16.703125 "/></g></g></g><g fill="#d2ae6d" fill-opacity="1"><g transform="translate(188.307989, 292.595497)"><g><path d="M 4.484375 -18.875 L 5.09375 -17.09375 L 6.703125 -0.65625 L 2.78125 -0.265625 L 0.984375 -18.53125 Z M 14.796875 -17.875 C 15.203125 -17.539062 15.53125 -17.140625 15.78125 -16.671875 C 16.039062 -16.210938 16.238281 -15.722656 16.375 -15.203125 C 16.519531 -14.679688 16.628906 -14.15625 16.703125 -13.625 C 16.785156 -13.09375 16.847656 -12.566406 16.890625 -12.046875 L 17.84375 -2.421875 L 17.90625 -1.765625 L 13.96875 -1.375 L 12.984375 -11.328125 C 12.921875 -12.066406 12.820312 -12.765625 12.6875 -13.421875 C 12.5625 -14.085938 12.351562 -14.664062 12.0625 -15.15625 C 11.769531 -15.644531 11.40625 -16.015625 10.96875 -16.265625 C 10.53125 -16.515625 9.945312 -16.601562 9.21875 -16.53125 C 8.914062 -16.507812 8.515625 -16.421875 8.015625 -16.265625 C 7.515625 -16.117188 7.039062 -15.921875 6.59375 -15.671875 L 6.34375 -18.171875 C 6.882812 -18.523438 7.484375 -18.84375 8.140625 -19.125 C 8.804688 -19.40625 9.460938 -19.578125 10.109375 -19.640625 C 11.085938 -19.734375 11.925781 -19.613281 12.625 -19.28125 C 13.332031 -18.957031 14.054688 -18.488281 14.796875 -17.875 Z M 14.796875 -17.875 "/></g></g></g><g fill="#d2ae6d" fill-opacity="1"><g transform="translate(213.474573, 289.640747)"><g><path d="M 4.796875 -21.171875 C 5.941406 -21.453125 7.046875 -21.492188 8.109375 -21.296875 C 9.171875 -21.109375 10.148438 -20.734375 11.046875 -20.171875 C 11.941406 -19.609375 12.734375 -18.878906 13.421875 -17.984375 C 14.109375 -17.085938 14.632812 -16.09375 15 -15 C 15.164062 -14.507812 15.300781 -14.007812 15.40625 -13.5 L 4.828125 -9.921875 L 3.90625 -12.640625 L 11.015625 -15.046875 C 10.835938 -15.578125 10.578125 -16.0625 10.234375 -16.5 C 9.898438 -16.9375 9.492188 -17.304688 9.015625 -17.609375 C 8.535156 -17.910156 8.019531 -18.128906 7.46875 -18.265625 C 6.914062 -18.398438 6.351562 -18.40625 5.78125 -18.28125 Z M 9.625 -6.5 C 9.851562 -6.570312 10.128906 -6.6875 10.453125 -6.84375 C 10.773438 -7.007812 11.101562 -7.222656 11.4375 -7.484375 C 11.769531 -7.753906 12.09375 -8.054688 12.40625 -8.390625 C 12.71875 -8.722656 12.972656 -9.082031 13.171875 -9.46875 L 15.21875 -7.859375 C 14.820312 -6.785156 14.242188 -5.878906 13.484375 -5.140625 C 12.734375 -4.410156 11.660156 -3.804688 10.265625 -3.328125 C 9.128906 -2.941406 7.988281 -2.8125 6.84375 -2.9375 C 5.695312 -3.070312 4.640625 -3.421875 3.671875 -3.984375 C 2.703125 -4.554688 1.828125 -5.304688 1.046875 -6.234375 C 0.273438 -7.160156 -0.316406 -8.242188 -0.734375 -9.484375 C -1.128906 -10.660156 -1.3125 -11.832031 -1.28125 -13 C -1.257812 -14.175781 -1.050781 -15.273438 -0.65625 -16.296875 C -0.269531 -17.316406 0.273438 -18.21875 0.984375 -19 C 1.691406 -19.789062 2.535156 -20.382812 3.515625 -20.78125 L 4.515625 -17.828125 C 3.804688 -17.421875 3.285156 -16.894531 2.953125 -16.25 C 2.628906 -15.613281 2.425781 -14.941406 2.34375 -14.234375 C 2.269531 -13.535156 2.285156 -12.847656 2.390625 -12.171875 C 2.492188 -11.503906 2.617188 -10.941406 2.765625 -10.484375 C 3.035156 -9.691406 3.382812 -8.984375 3.8125 -8.359375 C 4.25 -7.734375 4.753906 -7.234375 5.328125 -6.859375 C 5.910156 -6.492188 6.554688 -6.269531 7.265625 -6.1875 C 7.972656 -6.101562 8.757812 -6.207031 9.625 -6.5 Z M 9.625 -6.5 "/></g></g></g><g fill="#d2ae6d" fill-opacity="1"><g transform="translate(237.649011, 280.62795)"><g><path d="M 4.21875 -8.828125 C 4.582031 -8.191406 4.953125 -7.738281 5.328125 -7.46875 C 5.703125 -7.207031 6.097656 -7.070312 6.515625 -7.0625 C 6.929688 -7.050781 7.347656 -7.128906 7.765625 -7.296875 C 8.179688 -7.472656 8.609375 -7.6875 9.046875 -7.9375 L 10.234375 -5.84375 C 10.003906 -5.675781 9.773438 -5.507812 9.546875 -5.34375 C 9.347656 -5.207031 9.101562 -5.050781 8.8125 -4.875 C 8.53125 -4.695312 8.242188 -4.523438 7.953125 -4.359375 C 7.671875 -4.203125 7.378906 -4.050781 7.078125 -3.90625 C 6.785156 -3.757812 6.523438 -3.644531 6.296875 -3.5625 C 5.585938 -3.3125 4.925781 -3.300781 4.3125 -3.53125 C 3.707031 -3.769531 3.160156 -4.109375 2.671875 -4.546875 C 2.179688 -4.984375 1.765625 -5.441406 1.421875 -5.921875 C 1.085938 -6.410156 0.84375 -6.796875 0.6875 -7.078125 L -4.21875 -15.671875 L -6.3125 -14.46875 L -7.640625 -16.78125 L -5.546875 -17.984375 L -8.140625 -22.515625 L -4.71875 -24.46875 L -2.125 -19.9375 L 0.40625 -21.375 L 1.734375 -19.0625 L -0.796875 -17.625 Z M 4.21875 -8.828125 "/></g></g></g><g fill="#d2ae6d" fill-opacity="1"><g transform="translate(252.223237, 271.879051)"><g><path d="M 5.359375 -4.078125 L 2.203125 -1.671875 L -8.9375 -16.265625 L -5.78125 -18.671875 Z M -9.046875 -23.546875 C -8.660156 -23.035156 -8.507812 -22.46875 -8.59375 -21.84375 C -8.6875 -21.21875 -8.992188 -20.703125 -9.515625 -20.296875 C -10.035156 -19.910156 -10.609375 -19.765625 -11.234375 -19.859375 C -11.867188 -19.953125 -12.375 -20.242188 -12.75 -20.734375 C -13.144531 -21.253906 -13.300781 -21.832031 -13.21875 -22.46875 C -13.132812 -23.113281 -12.84375 -23.625 -12.34375 -24 C -11.820312 -24.40625 -11.238281 -24.5625 -10.59375 -24.46875 C -9.957031 -24.375 -9.441406 -24.066406 -9.046875 -23.546875 Z M -9.046875 -23.546875 "/></g></g></g><g fill="#d2ae6d" fill-opacity="1"><g transform="translate(262.815021, 263.900981)"><g><path d="M 0.46875 -20.265625 C -0.0390625 -20.296875 -0.613281 -20.21875 -1.25 -20.03125 C -1.894531 -19.84375 -2.566406 -19.421875 -3.265625 -18.765625 L -5.546875 -20.9375 C -4.671875 -21.757812 -3.773438 -22.328125 -2.859375 -22.640625 C -1.953125 -22.953125 -0.953125 -23.066406 0.140625 -22.984375 Z M 5.578125 -10.359375 C 6.054688 -10.992188 6.378906 -11.613281 6.546875 -12.21875 C 6.710938 -12.820312 6.828125 -13.441406 6.890625 -14.078125 L 9.421875 -13.671875 C 9.585938 -12.597656 9.5625 -11.625 9.34375 -10.75 C 9.125 -9.882812 8.648438 -9.015625 7.921875 -8.140625 Z M -5.078125 -7.984375 C -5.972656 -8.828125 -6.691406 -9.753906 -7.234375 -10.765625 C -7.785156 -11.773438 -8.117188 -12.8125 -8.234375 -13.875 C -8.347656 -14.945312 -8.265625 -16 -7.984375 -17.03125 C -7.710938 -18.070312 -7.207031 -19.054688 -6.46875 -19.984375 L -4.15625 -17.796875 C -4.738281 -16.835938 -4.859375 -15.742188 -4.515625 -14.515625 C -4.171875 -13.285156 -3.429688 -12.132812 -2.296875 -11.0625 C -1.710938 -10.507812 -1.101562 -10.046875 -0.46875 -9.671875 C 0.15625 -9.304688 0.765625 -9.046875 1.359375 -8.890625 C 1.960938 -8.742188 2.550781 -8.703125 3.125 -8.765625 C 3.707031 -8.835938 4.21875 -9.050781 4.65625 -9.40625 L 7 -7.1875 C 6.125 -6.363281 5.171875 -5.78125 4.140625 -5.4375 C 3.117188 -5.09375 2.070312 -4.960938 1 -5.046875 C -0.0625 -5.140625 -1.113281 -5.4375 -2.15625 -5.9375 C -3.207031 -6.445312 -4.179688 -7.128906 -5.078125 -7.984375 Z M -5.078125 -7.984375 "/></g></g></g><g fill="#d2ae6d" fill-opacity="1"><g transform="translate(278.512619, 246.633155)"><g><path d="M -9.859375 -8.984375 C -10.554688 -9.421875 -11.101562 -9.941406 -11.5 -10.546875 C -11.894531 -11.160156 -12.144531 -11.820312 -12.25 -12.53125 C -12.363281 -13.238281 -12.351562 -13.953125 -12.21875 -14.671875 C -12.09375 -15.398438 -11.859375 -16.09375 -11.515625 -16.75 L -8.75 -15.03125 C -8.957031 -14.488281 -9 -13.992188 -8.875 -13.546875 C -8.75 -13.097656 -8.414062 -12.703125 -7.875 -12.359375 C -7.4375 -12.085938 -6.992188 -12.007812 -6.546875 -12.125 C -6.109375 -12.25 -5.648438 -12.46875 -5.171875 -12.78125 L -2.21875 -10.921875 C -2.5 -10.671875 -2.800781 -10.421875 -3.125 -10.171875 C -3.445312 -9.921875 -3.785156 -9.6875 -4.140625 -9.46875 C -5.253906 -8.820312 -6.25 -8.429688 -7.125 -8.296875 C -8.007812 -8.171875 -8.921875 -8.398438 -9.859375 -8.984375 Z M -5.234375 -18.90625 C -5.804688 -18.582031 -6.332031 -18.179688 -6.8125 -17.703125 C -7.289062 -17.222656 -7.722656 -16.71875 -8.109375 -16.1875 L -10.828125 -17.890625 C -10.273438 -18.703125 -9.679688 -19.394531 -9.046875 -19.96875 C -8.421875 -20.550781 -7.691406 -21.035156 -6.859375 -21.421875 Z M -1.296875 -5.671875 C -0.804688 -5.867188 -0.289062 -6.148438 0.25 -6.515625 C 0.789062 -6.878906 1.300781 -7.445312 1.78125 -8.21875 L 1.875 -8.359375 L 4.421875 -6.765625 C 4.128906 -6.304688 3.847656 -5.890625 3.578125 -5.515625 C 3.304688 -5.140625 3.003906 -4.796875 2.671875 -4.484375 C 2.335938 -4.171875 1.957031 -3.878906 1.53125 -3.609375 C 1.101562 -3.335938 0.609375 -3.082031 0.046875 -2.84375 Z M -4.015625 -13.625 C -3.492188 -14.0625 -2.941406 -14.5 -2.359375 -14.9375 C -1.785156 -15.375 -1.1875 -15.722656 -0.5625 -15.984375 C 0.0625 -16.242188 0.710938 -16.367188 1.390625 -16.359375 C 2.078125 -16.359375 2.785156 -16.128906 3.515625 -15.671875 C 4.242188 -15.210938 4.789062 -14.6875 5.15625 -14.09375 C 5.519531 -13.507812 5.757812 -12.878906 5.875 -12.203125 C 6 -11.535156 5.984375 -10.832031 5.828125 -10.09375 C 5.679688 -9.363281 5.429688 -8.640625 5.078125 -7.921875 L 2.453125 -9.5625 C 2.734375 -10.25 2.835938 -10.851562 2.765625 -11.375 C 2.691406 -11.894531 2.414062 -12.304688 1.9375 -12.609375 C 1.46875 -12.898438 0.976562 -12.941406 0.46875 -12.734375 C -0.03125 -12.535156 -0.554688 -12.222656 -1.109375 -11.796875 Z M -4.015625 -13.625 "/></g></g></g><g fill="#d2ae6d" fill-opacity="1"><g transform="translate(104.045931, 155.032173)"><g><path d="M -23.8125 -24.609375 L -19.625 -29.375 L 5.21875 -17.109375 L 10.890625 -12.125 L 8.96875 -9.921875 Z M -8.875 -41.625 L -4.71875 -46.34375 L 13.734375 -15.34375 L 12.140625 -13.546875 L 5.359375 -19.5 Z M -8.875 -41.625 "/></g></g></g><g fill="#d2ae6d" fill-opacity="1"><g transform="translate(124.98372, 131.308855)"><g><path d="M 3.078125 -11.1875 C 3.816406 -10 4.601562 -9.269531 5.4375 -9 C 6.28125 -8.726562 7.203125 -8.828125 8.203125 -9.296875 L 10.171875 -6.109375 C 10.078125 -6.003906 9.910156 -5.878906 9.671875 -5.734375 C 8.785156 -5.179688 7.851562 -4.769531 6.875 -4.5 C 5.90625 -4.226562 4.941406 -4.15625 3.984375 -4.28125 C 3.023438 -4.40625 2.097656 -4.789062 1.203125 -5.4375 C 0.316406 -6.09375 -0.515625 -7.046875 -1.296875 -8.296875 C -2.046875 -9.503906 -2.4375 -10.707031 -2.46875 -11.90625 C -2.5 -13.101562 -2.285156 -14.234375 -1.828125 -15.296875 C -1.378906 -16.359375 -0.734375 -17.34375 0.109375 -18.25 C 0.960938 -19.15625 1.910156 -19.929688 2.953125 -20.578125 L 4.6875 -21.65625 L 6.421875 -18.875 L 5.546875 -18.328125 C 5.023438 -18.003906 4.507812 -17.613281 4 -17.15625 C 3.488281 -16.695312 3.070312 -16.164062 2.75 -15.5625 C 2.4375 -14.957031 2.28125 -14.285156 2.28125 -13.546875 C 2.289062 -12.816406 2.554688 -12.03125 3.078125 -11.1875 Z M 15.390625 -18.671875 C 15.515625 -18.460938 15.71875 -18.160156 16 -17.765625 C 16.28125 -17.378906 16.585938 -17 16.921875 -16.625 C 17.253906 -16.25 17.613281 -15.941406 18 -15.703125 C 18.382812 -15.472656 18.75 -15.394531 19.09375 -15.46875 L 19.5 -12.0625 C 19.15625 -11.84375 18.742188 -11.695312 18.265625 -11.625 C 17.785156 -11.550781 17.273438 -11.546875 16.734375 -11.609375 C 16.203125 -11.671875 15.703125 -11.800781 15.234375 -12 C 14.765625 -12.207031 14.332031 -12.476562 13.9375 -12.8125 C 14.082031 -11.988281 13.925781 -11.082031 13.46875 -10.09375 C 13.019531 -9.113281 12.394531 -8.210938 11.59375 -7.390625 L 9.734375 -10.375 C 10.296875 -10.882812 10.710938 -11.488281 10.984375 -12.1875 C 11.253906 -12.882812 11.410156 -13.613281 11.453125 -14.375 L 6.296875 -22.65625 C 5.492188 -23.9375 4.785156 -24.914062 4.171875 -25.59375 C 3.566406 -26.269531 3 -26.6875 2.46875 -26.84375 C 1.9375 -27.007812 1.414062 -26.992188 0.90625 -26.796875 C 0.394531 -26.609375 -0.175781 -26.320312 -0.8125 -25.9375 C -1.394531 -25.570312 -1.890625 -25.15625 -2.296875 -24.6875 C -2.710938 -24.226562 -3.078125 -23.769531 -3.390625 -23.3125 C -3.710938 -22.851562 -3.960938 -22.398438 -4.140625 -21.953125 C -4.316406 -21.515625 -4.445312 -21.179688 -4.53125 -20.953125 L -7.984375 -22.5625 C -7.890625 -23.019531 -7.675781 -23.5625 -7.34375 -24.1875 C -7.007812 -24.8125 -6.570312 -25.453125 -6.03125 -26.109375 C -5.5 -26.765625 -4.878906 -27.414062 -4.171875 -28.0625 C -3.460938 -28.707031 -2.675781 -29.300781 -1.8125 -29.84375 C -1.039062 -30.320312 -0.234375 -30.710938 0.609375 -31.015625 C 1.460938 -31.328125 2.3125 -31.488281 3.15625 -31.5 C 4.007812 -31.519531 4.851562 -31.363281 5.6875 -31.03125 C 6.519531 -30.707031 7.316406 -30.144531 8.078125 -29.34375 C 8.835938 -28.539062 9.539062 -27.691406 10.1875 -26.796875 C 10.832031 -25.910156 11.441406 -25.015625 12.015625 -24.109375 L 15.1875 -19 Z M 15.390625 -18.671875 "/></g></g></g><g fill="#d2ae6d" fill-opacity="1"><g transform="translate(147.511793, 117.807082)"><g><path d="M 6.328125 -10.6875 C 6.679688 -9.695312 7.085938 -8.960938 7.546875 -8.484375 C 8.015625 -8.003906 8.53125 -7.707031 9.09375 -7.59375 C 9.664062 -7.488281 10.265625 -7.492188 10.890625 -7.609375 C 11.515625 -7.734375 12.175781 -7.921875 12.875 -8.171875 L 14.015625 -4.953125 C 13.660156 -4.753906 13.28125 -4.570312 12.875 -4.40625 C 12.5625 -4.257812 12.191406 -4.101562 11.765625 -3.9375 C 11.335938 -3.769531 10.90625 -3.609375 10.46875 -3.453125 C 10.03125 -3.296875 9.585938 -3.15625 9.140625 -3.03125 C 8.691406 -2.914062 8.28125 -2.820312 7.90625 -2.75 C 6.851562 -2.601562 5.929688 -2.765625 5.140625 -3.234375 C 4.359375 -3.710938 3.671875 -4.316406 3.078125 -5.046875 C 2.492188 -5.773438 2.023438 -6.515625 1.671875 -7.265625 C 1.328125 -8.023438 1.078125 -8.625 0.921875 -9.0625 L 0.734375 -9.59375 L -8.3125 -35.203125 L -3 -37.078125 Z M 6.328125 -10.6875 "/></g></g></g><g fill="#d2ae6d" fill-opacity="1"><g transform="translate(161.766132, 111.943321)"><g><path d="M -0.390625 -36.1875 L 5.15625 -36.859375 L 9.5 -1.15625 L 3.953125 -0.484375 Z M 20.4375 -25.890625 C 21.03125 -25.441406 21.507812 -24.890625 21.875 -24.234375 C 22.25 -23.578125 22.550781 -22.878906 22.78125 -22.140625 C 23.019531 -21.410156 23.195312 -20.664062 23.3125 -19.90625 C 23.4375 -19.144531 23.539062 -18.394531 23.625 -17.65625 L 25.296875 -4.015625 L 25.40625 -3.09375 L 19.8125 -2.40625 L 18.09375 -16.515625 C 17.96875 -17.554688 17.800781 -18.546875 17.59375 -19.484375 C 17.382812 -20.421875 17.0625 -21.234375 16.625 -21.921875 C 16.195312 -22.617188 15.664062 -23.140625 15.03125 -23.484375 C 14.40625 -23.835938 13.578125 -23.953125 12.546875 -23.828125 C 12.109375 -23.773438 11.535156 -23.632812 10.828125 -23.40625 C 10.128906 -23.1875 9.460938 -22.878906 8.828125 -22.484375 L 8.40625 -26.015625 C 9.175781 -26.554688 10.023438 -27.035156 10.953125 -27.453125 C 11.878906 -27.878906 12.800781 -28.148438 13.71875 -28.265625 C 15.101562 -28.429688 16.300781 -28.285156 17.3125 -27.828125 C 18.332031 -27.367188 19.375 -26.722656 20.4375 -25.890625 Z M 20.4375 -25.890625 "/></g></g></g><g fill="#d2ae6d" fill-opacity="1"><g transform="translate(187.471059, 108.532859)"><g><path d="M 9.5625 -6.5625 C 9.363281 -5.175781 9.5 -4.101562 9.96875 -3.34375 C 10.4375 -2.59375 11.195312 -2.082031 12.25 -1.8125 L 11.703125 1.90625 C 11.578125 1.914062 11.375 1.898438 11.09375 1.859375 C 10.050781 1.710938 9.070312 1.425781 8.15625 1 C 7.238281 0.582031 6.457031 0.0195312 5.8125 -0.6875 C 5.164062 -1.40625 4.707031 -2.300781 4.4375 -3.375 C 4.175781 -4.445312 4.15625 -5.71875 4.375 -7.1875 C 4.570312 -8.582031 5.046875 -9.75 5.796875 -10.6875 C 6.546875 -11.625 7.4375 -12.351562 8.46875 -12.875 C 9.5 -13.394531 10.628906 -13.722656 11.859375 -13.859375 C 13.097656 -14.003906 14.328125 -13.988281 15.546875 -13.8125 L 17.578125 -13.515625 L 17.09375 -10.265625 L 16.0625 -10.421875 C 15.457031 -10.503906 14.8125 -10.535156 14.125 -10.515625 C 13.4375 -10.492188 12.773438 -10.351562 12.140625 -10.09375 C 11.503906 -9.84375 10.953125 -9.4375 10.484375 -8.875 C 10.015625 -8.3125 9.707031 -7.539062 9.5625 -6.5625 Z M 23.8125 -4.328125 C 23.769531 -4.078125 23.726562 -3.710938 23.6875 -3.234375 C 23.644531 -2.765625 23.628906 -2.273438 23.640625 -1.765625 C 23.660156 -1.265625 23.742188 -0.800781 23.890625 -0.375 C 24.035156 0.0507812 24.265625 0.34375 24.578125 0.5 L 22.6875 3.375 C 22.28125 3.3125 21.867188 3.148438 21.453125 2.890625 C 21.035156 2.640625 20.644531 2.316406 20.28125 1.921875 C 19.914062 1.535156 19.617188 1.113281 19.390625 0.65625 C 19.160156 0.207031 19.003906 -0.269531 18.921875 -0.78125 C 18.503906 -0.0625 17.800781 0.523438 16.8125 0.984375 C 15.832031 1.441406 14.769531 1.726562 13.625 1.84375 L 14.140625 -1.640625 C 14.890625 -1.671875 15.597656 -1.863281 16.265625 -2.21875 C 16.929688 -2.570312 17.515625 -3.023438 18.015625 -3.578125 L 19.4375 -13.234375 C 19.65625 -14.734375 19.753906 -15.9375 19.734375 -16.84375 C 19.710938 -17.757812 19.546875 -18.445312 19.234375 -18.90625 C 18.921875 -19.375 18.503906 -19.703125 17.984375 -19.890625 C 17.472656 -20.078125 16.851562 -20.222656 16.125 -20.328125 C 15.445312 -20.429688 14.796875 -20.441406 14.171875 -20.359375 C 13.554688 -20.273438 12.976562 -20.15625 12.4375 -20 C 11.90625 -19.851562 11.425781 -19.664062 11 -19.4375 C 10.582031 -19.21875 10.269531 -19.046875 10.0625 -18.921875 L 8.484375 -22.375 C 8.835938 -22.675781 9.34375 -22.957031 10 -23.21875 C 10.65625 -23.476562 11.398438 -23.6875 12.234375 -23.84375 C 13.066406 -24.007812 13.960938 -24.101562 14.921875 -24.125 C 15.878906 -24.15625 16.863281 -24.097656 17.875 -23.953125 C 18.78125 -23.816406 19.65625 -23.59375 20.5 -23.28125 C 21.351562 -22.976562 22.109375 -22.554688 22.765625 -22.015625 C 23.421875 -21.484375 23.957031 -20.820312 24.375 -20.03125 C 24.800781 -19.238281 25.046875 -18.289062 25.109375 -17.1875 C 25.171875 -16.09375 25.160156 -14.992188 25.078125 -13.890625 C 25.003906 -12.785156 24.890625 -11.703125 24.734375 -10.640625 L 23.859375 -4.703125 Z M 23.8125 -4.328125 "/></g></g></g><g fill="#d2ae6d" fill-opacity="1"><g transform="translate(213.392117, 112.764691)"><g><path d="M 11.734375 -4.078125 C 11.359375 -3.085938 11.195312 -2.257812 11.25 -1.59375 C 11.300781 -0.9375 11.503906 -0.382812 11.859375 0.0625 C 12.222656 0.507812 12.679688 0.890625 13.234375 1.203125 C 13.796875 1.515625 14.421875 1.800781 15.109375 2.0625 L 13.890625 5.265625 C 13.503906 5.179688 13.101562 5.070312 12.6875 4.9375 C 12.351562 4.851562 11.96875 4.738281 11.53125 4.59375 C 11.09375 4.445312 10.65625 4.289062 10.21875 4.125 C 9.789062 3.957031 9.363281 3.773438 8.9375 3.578125 C 8.519531 3.390625 8.144531 3.203125 7.8125 3.015625 C 6.914062 2.429688 6.316406 1.703125 6.015625 0.828125 C 5.722656 -0.0351562 5.585938 -0.929688 5.609375 -1.859375 C 5.628906 -2.796875 5.75 -3.664062 5.96875 -4.46875 C 6.195312 -5.28125 6.394531 -5.898438 6.5625 -6.328125 L 6.75 -6.859375 L 16.375 -32.265625 L 21.640625 -30.265625 Z M 11.734375 -4.078125 "/></g></g></g><g fill="#d2ae6d" fill-opacity="1"><g transform="translate(228.533755, 118.441539)"><g><path d="M 12.25 -2.046875 C 11.71875 -1.140625 11.421875 -0.359375 11.359375 0.296875 C 11.296875 0.960938 11.40625 1.546875 11.6875 2.046875 C 11.96875 2.554688 12.351562 3.007812 12.84375 3.40625 C 13.34375 3.800781 13.910156 4.1875 14.546875 4.5625 L 12.8125 7.515625 C 12.445312 7.367188 12.0625 7.203125 11.65625 7.015625 C 11.351562 6.859375 11 6.671875 10.59375 6.453125 C 10.1875 6.234375 9.78125 6.007812 9.375 5.78125 C 8.976562 5.539062 8.585938 5.289062 8.203125 5.03125 C 7.816406 4.769531 7.476562 4.519531 7.1875 4.28125 C 6.40625 3.5625 5.941406 2.742188 5.796875 1.828125 C 5.648438 0.921875 5.664062 0.015625 5.84375 -0.890625 C 6.019531 -1.804688 6.285156 -2.644531 6.640625 -3.40625 C 6.992188 -4.164062 7.289062 -4.742188 7.53125 -5.140625 L 7.8125 -5.625 L 21.5625 -29.0625 L 26.421875 -26.203125 Z M 12.25 -2.046875 "/></g></g></g><g fill="#d2ae6d" fill-opacity="1"><g transform="translate(242.213063, 125.598757)"><g><path d="M 11.59375 0 C 10.644531 1.03125 10.148438 1.988281 10.109375 2.875 C 10.078125 3.757812 10.414062 4.617188 11.125 5.453125 L 8.578125 8.203125 C 8.460938 8.140625 8.300781 8.007812 8.09375 7.8125 C 7.320312 7.101562 6.675781 6.3125 6.15625 5.4375 C 5.644531 4.570312 5.320312 3.660156 5.1875 2.703125 C 5.0625 1.753906 5.191406 0.765625 5.578125 -0.265625 C 5.960938 -1.296875 6.65625 -2.351562 7.65625 -3.4375 C 8.625 -4.476562 9.679688 -5.171875 10.828125 -5.515625 C 11.972656 -5.867188 13.113281 -5.96875 14.25 -5.8125 C 15.394531 -5.65625 16.515625 -5.289062 17.609375 -4.71875 C 18.710938 -4.144531 19.71875 -3.4375 20.625 -2.59375 L 22.125 -1.203125 L 19.90625 1.203125 L 19.15625 0.5 C 18.695312 0.0820312 18.175781 -0.304688 17.59375 -0.671875 C 17.007812 -1.046875 16.382812 -1.304688 15.71875 -1.453125 C 15.0625 -1.597656 14.378906 -1.570312 13.671875 -1.375 C 12.960938 -1.175781 12.269531 -0.71875 11.59375 0 Z M 22.0625 9.90625 C 21.894531 10.082031 21.660156 10.359375 21.359375 10.734375 C 21.066406 11.109375 20.78125 11.503906 20.5 11.921875 C 20.226562 12.347656 20.03125 12.773438 19.90625 13.203125 C 19.789062 13.640625 19.8125 14.015625 19.96875 14.328125 L 16.78125 15.609375 C 16.488281 15.328125 16.238281 14.96875 16.03125 14.53125 C 15.832031 14.09375 15.695312 13.609375 15.625 13.078125 C 15.550781 12.546875 15.546875 12.023438 15.609375 11.515625 C 15.679688 11.003906 15.828125 10.519531 16.046875 10.0625 C 15.296875 10.414062 14.378906 10.503906 13.296875 10.328125 C 12.222656 10.160156 11.1875 9.796875 10.1875 9.234375 L 12.578125 6.65625 C 13.222656 7.039062 13.921875 7.273438 14.671875 7.359375 C 15.421875 7.441406 16.160156 7.40625 16.890625 7.25 L 23.515625 0.078125 C 24.546875 -1.023438 25.304688 -1.957031 25.796875 -2.71875 C 26.296875 -3.476562 26.550781 -4.140625 26.5625 -4.703125 C 26.570312 -5.265625 26.414062 -5.765625 26.09375 -6.203125 C 25.769531 -6.648438 25.335938 -7.125 24.796875 -7.625 C 24.296875 -8.09375 23.765625 -8.46875 23.203125 -8.75 C 22.648438 -9.03125 22.109375 -9.257812 21.578125 -9.4375 C 21.046875 -9.625 20.546875 -9.742188 20.078125 -9.796875 C 19.609375 -9.859375 19.253906 -9.894531 19.015625 -9.90625 L 19.65625 -13.65625 C 20.113281 -13.695312 20.6875 -13.640625 21.375 -13.484375 C 22.070312 -13.328125 22.804688 -13.078125 23.578125 -12.734375 C 24.359375 -12.390625 25.15625 -11.957031 25.96875 -11.4375 C 26.78125 -10.925781 27.5625 -10.328125 28.3125 -9.640625 C 28.976562 -9.015625 29.566406 -8.332031 30.078125 -7.59375 C 30.597656 -6.851562 30.976562 -6.078125 31.21875 -5.265625 C 31.46875 -4.453125 31.539062 -3.597656 31.4375 -2.703125 C 31.332031 -1.804688 31 -0.890625 30.4375 0.046875 C 29.863281 0.984375 29.226562 1.878906 28.53125 2.734375 C 27.84375 3.597656 27.132812 4.425781 26.40625 5.21875 L 22.328125 9.625 Z M 22.0625 9.90625 "/></g></g></g><g fill="#d2ae6d" fill-opacity="1"><g transform="translate(261.267278, 144.101517)"><g/></g></g></svg>